<mxfile host="app.diagrams.net" modified="2021-05-13T15:18:34.353Z" agent="5.0 (Macintosh; Intel Mac OS X 10_14_6) AppleWebKit/537.36 (KHTML, like Gecko) Chrome/90.0.4430.93 Safari/537.36" etag="o1yr4IKlpWPEysyQvgnf" version="14.6.13" type="github">
  <diagram name="Page-1" id="7e0a89b8-554c-2b80-1dc8-d5c74ca68de4">
    <mxGraphModel dx="1153" dy="720" grid="1" gridSize="10" guides="1" tooltips="1" connect="1" arrows="1" fold="1" page="1" pageScale="1" pageWidth="1100" pageHeight="850" background="#ffffff" math="0" shadow="0">
      <root>
        <mxCell id="0" />
        <mxCell id="1" parent="0" />
        <mxCell id="azLALwkfFb3IbBg62-cf-7" style="edgeStyle=orthogonalEdgeStyle;rounded=0;orthogonalLoop=1;jettySize=auto;html=1;exitX=1;exitY=0.25;exitDx=0;exitDy=0;entryX=0;entryY=0.5;entryDx=0;entryDy=0;" edge="1" parent="1" source="azLALwkfFb3IbBg62-cf-1" target="azLALwkfFb3IbBg62-cf-2">
          <mxGeometry relative="1" as="geometry" />
        </mxCell>
        <mxCell id="azLALwkfFb3IbBg62-cf-1" value="Bath Clamp" style="rounded=0;whiteSpace=wrap;html=1;" vertex="1" parent="1">
          <mxGeometry x="472" y="62" width="120" height="90" as="geometry" />
        </mxCell>
        <mxCell id="azLALwkfFb3IbBg62-cf-2" value="P1" style="rounded=0;whiteSpace=wrap;html=1;" vertex="1" parent="1">
          <mxGeometry x="770" y="70" width="30" height="30" as="geometry" />
        </mxCell>
        <mxCell id="azLALwkfFb3IbBg62-cf-17" style="edgeStyle=orthogonalEdgeStyle;rounded=0;orthogonalLoop=1;jettySize=auto;html=1;exitX=1;exitY=0.25;exitDx=0;exitDy=0;startArrow=none;startFill=0;entryX=0;entryY=0.5;entryDx=0;entryDy=0;entryPerimeter=0;endArrow=none;endFill=0;" edge="1" parent="1" source="azLALwkfFb3IbBg62-cf-3" target="azLALwkfFb3IbBg62-cf-15">
          <mxGeometry relative="1" as="geometry">
            <mxPoint x="340" y="30" as="targetPoint" />
            <Array as="points">
              <mxPoint x="350" y="83" />
              <mxPoint x="350" y="25" />
            </Array>
          </mxGeometry>
        </mxCell>
        <mxCell id="azLALwkfFb3IbBg62-cf-3" value="HDMI" style="rounded=0;whiteSpace=wrap;html=1;" vertex="1" parent="1">
          <mxGeometry x="240" y="60" width="40" height="90" as="geometry" />
        </mxCell>
        <mxCell id="azLALwkfFb3IbBg62-cf-10" style="edgeStyle=orthogonalEdgeStyle;rounded=0;orthogonalLoop=1;jettySize=auto;html=1;exitX=0;exitY=0.5;exitDx=0;exitDy=0;entryX=1;entryY=0.75;entryDx=0;entryDy=0;" edge="1" parent="1" source="azLALwkfFb3IbBg62-cf-4" target="azLALwkfFb3IbBg62-cf-1">
          <mxGeometry relative="1" as="geometry" />
        </mxCell>
        <mxCell id="azLALwkfFb3IbBg62-cf-4" value="P2" style="rounded=0;whiteSpace=wrap;html=1;" vertex="1" parent="1">
          <mxGeometry x="770" y="115" width="30" height="30" as="geometry" />
        </mxCell>
        <mxCell id="azLALwkfFb3IbBg62-cf-13" style="edgeStyle=orthogonalEdgeStyle;rounded=0;orthogonalLoop=1;jettySize=auto;html=1;exitX=0.5;exitY=0;exitDx=0;exitDy=0;startArrow=classic;startFill=1;" edge="1" parent="1" source="azLALwkfFb3IbBg62-cf-11">
          <mxGeometry relative="1" as="geometry">
            <mxPoint x="700" y="130" as="targetPoint" />
          </mxGeometry>
        </mxCell>
        <mxCell id="azLALwkfFb3IbBg62-cf-19" style="edgeStyle=orthogonalEdgeStyle;rounded=0;orthogonalLoop=1;jettySize=auto;html=1;exitX=0.25;exitY=0;exitDx=0;exitDy=0;startArrow=classic;startFill=1;endArrow=classic;endFill=1;" edge="1" parent="1" source="azLALwkfFb3IbBg62-cf-11">
          <mxGeometry relative="1" as="geometry">
            <mxPoint x="670" y="80" as="targetPoint" />
          </mxGeometry>
        </mxCell>
        <mxCell id="azLALwkfFb3IbBg62-cf-11" value="Calibration&lt;br&gt;Switching" style="rounded=0;whiteSpace=wrap;html=1;" vertex="1" parent="1">
          <mxGeometry x="640" y="190" width="120" height="90" as="geometry" />
        </mxCell>
        <mxCell id="azLALwkfFb3IbBg62-cf-14" value="CC" style="rounded=0;whiteSpace=wrap;html=1;" vertex="1" parent="1">
          <mxGeometry x="770" y="10" width="30" height="30" as="geometry" />
        </mxCell>
        <mxCell id="azLALwkfFb3IbBg62-cf-15" value="" style="pointerEvents=1;verticalLabelPosition=bottom;shadow=0;dashed=0;align=center;html=1;verticalAlign=top;shape=mxgraph.electrical.capacitors.capacitor_1;" vertex="1" parent="1">
          <mxGeometry x="690" y="10" width="80" height="30" as="geometry" />
        </mxCell>
      </root>
    </mxGraphModel>
  </diagram>
</mxfile>
